<?xml version="1.0" encoding="utf-8"?>
<!-- Generator: Adobe Illustrator 25.4.1, SVG Export Plug-In . SVG Version: 6.00 Build 0)  -->
<svg version="1.1" id="Layer_1" xmlns="http://www.w3.org/2000/svg" xmlns:xlink="http://www.w3.org/1999/xlink" x="0px" y="0px"
	 viewBox="0 0 160 160" style="enable-background:new 0 0 160 160;" xml:space="preserve">
<style type="text/css">
	.st0{fill:url(#SVGID_1_);}
	.st1{fill:url(#SVGID_00000096772184195784316870000013572613971571454870_);}
	.st2{fill:url(#SVGID_00000096024422859785890510000012288008773311987334_);}
	.st3{fill:url(#SVGID_00000163782545189732285300000004789938273179345541_);}
	.st4{fill:url(#SVGID_00000014632015412446454320000012988169488031933836_);}
	.st5{fill:url(#SVGID_00000163054786531520268900000016714090049871969190_);}
	.st6{fill:url(#SVGID_00000121239430176983015210000015781533061768003228_);}
	.st7{fill:url(#SVGID_00000121967834812112094700000012873248848744279972_);}
	.st8{fill:url(#SVGID_00000145034990004996453120000017518303810961605019_);}
	.st9{fill:url(#SVGID_00000088848264959589589560000005607707536981530027_);}
	.st10{fill:url(#SVGID_00000132075723684049471870000006566203728802335141_);}
	.st11{fill:url(#SVGID_00000165219285790913776110000014857794501303961743_);}
	.st12{fill:url(#SVGID_00000075156446641642312200000000905869294925414310_);}
	.st13{fill:url(#SVGID_00000041272259630270900470000012730994187104579504_);}
	.st14{fill:url(#SVGID_00000137100309936102750930000009339122327182044085_);}
	.st15{fill:url(#SVGID_00000121969131882845126710000005919467759845373320_);}
	.st16{fill:url(#SVGID_00000077310693006896007130000009039589246635602606_);}
	.st17{fill:url(#SVGID_00000114795667380912771990000005683984682548371364_);}
	.st18{fill:url(#SVGID_00000162331944763510876850000006466978577953303485_);}
	.st19{fill:url(#SVGID_00000085235421578580585940000015020054260976856726_);}
	.st20{fill:url(#SVGID_00000041295614120028504890000008441021116106457750_);}
	.st21{fill:url(#SVGID_00000005248500281887100540000017034037156165135749_);}
	.st22{fill:url(#SVGID_00000094587269391372924530000000269031157317827477_);}
	.st23{fill:url(#SVGID_00000005982448920156966690000003435093643828624045_);}
</style>
<g>
	<linearGradient id="SVGID_1_" gradientUnits="userSpaceOnUse" x1="38.9018" y1="96.9715" x2="88.1904" y2="96.9715">
		<stop  offset="0" style="stop-color:#980000"/>
		<stop  offset="1" style="stop-color:#000000"/>
	</linearGradient>
	<path class="st0" d="M85.39,106.59c-1.24,0.03-1.33-0.47-1.32-1.47c0.04-3.76,0.01-7.53,0.02-11.29c0.01-1.05-0.08-2.05-1.45-2
		c-1.27,0.05-1.3,1.03-1.29,1.99c0.01,3.82-0.02,7.64,0.02,11.46c0.01,0.88-0.08,1.3-1.15,1.29c-11.12-0.04-22.24-0.03-33.35,0
		c-0.92,0-1.13-0.27-1.12-1.15c0.03-8.38,0.03-16.76-0.01-25.13c0-0.91,0.26-1.15,1.14-1.13c3.2,0.05,6.39,0.01,9.58,0.02
		c0.97,0,1.94-0.02,1.98-1.29c0.06-1.39-0.95-1.46-1.99-1.46c-3.65,0.02-7.3,0.01-10.95,0.01c-2.26,0-2.47,0.2-2.47,2.42
		c0,8.61-0.05,17.21,0.04,25.82c0.02,1.58-0.42,2.09-1.94,1.88c-1.6-0.22-2.36,0.52-2.21,2.16c0.04,0.45,0,0.91,0,1.37
		c0.03,4.61,2.83,7.4,7.49,7.41c5.7,0.01,11.4,0,17.1,0h16.76c5.31,0,7.92-2.65,7.92-8.01C88.19,106.59,88.19,106.51,85.39,106.59z
		 M85.46,110.81c-0.26,2.91-4.01,5.19-6.55,3.94c-0.51-0.25-0.28-0.69-0.28-1.04c0-0.93-0.34-1.62-1.32-1.65
		c-1.09-0.03-1.53,0.69-1.42,1.69c0.09,0.87-0.24,1.03-1.04,1.03c-7.53-0.03-15.05-0.03-22.58,0c-0.79,0-1.14-0.15-1.05-1.02
		c0.11-1-0.32-1.73-1.41-1.7c-0.98,0.03-1.41,0.72-1.29,1.64c0.12,1-0.37,1.06-1.17,1.08c-3.58,0.05-5.43-1.26-5.71-3.97
		c-0.13-1.33,0.33-1.57,1.57-1.55c6.78,0.06,13.56,0.03,20.35,0.03c6.84,0,13.68,0.04,20.52-0.04
		C85.39,109.24,85.56,109.71,85.46,110.81z"/>
	
		<linearGradient id="SVGID_00000018204851630884112290000016774864119417690514_" gradientUnits="userSpaceOnUse" x1="48.5282" y1="83.9973" x2="92.6111" y2="83.9973">
		<stop  offset="0" style="stop-color:#980000"/>
		<stop  offset="1" style="stop-color:#000000"/>
	</linearGradient>
	<path style="fill:url(#SVGID_00000018204851630884112290000016774864119417690514_);" d="M92.05,83.11
		c-2.03-3.56-4.09-7.09-6.12-10.65c-0.5-0.88-1.09-1.59-2.15-1.01c-1.07,0.59-0.78,1.47-0.26,2.35c1.69,2.89,3.34,5.82,5.06,8.7
		c0.54,0.9,0.61,1.28-0.56,1.76c-8.98,3.64-18.51,5.97-26.88,11.11c-1.37,0.84-2.8,0.31-3.67-1.09c-0.9-1.45-1.75-2.93-2.55-4.44
		c-0.87-1.64-0.5-2.92,1.1-3.93c1.16-0.73,2.39-1.33,3.53-2.07c0.73-0.47,1.13-0.45,1.56,0.38c0.81,1.56,1.76,3.05,2.61,4.6
		c0.48,0.87,1.17,1.35,2.08,0.85c0.95-0.52,0.81-1.37,0.32-2.21c-0.9-1.52-1.69-3.1-2.67-4.57c-0.61-0.92-0.41-1.38,0.38-2.03
		c5.05-4.1,10.05-8.24,15.05-12.4c0.7-0.58,1.2-1.02,1.75,0.13c0.26,0.56,0.85,0.78,1.46,0.58c0.5-0.17,0.88-0.51,0.97-1.09
		c0.1-0.67-1.42-3.46-2.09-3.79c-1.09-0.54-1.66,0.38-2.36,0.89c-0.33,0.23-0.62,0.51-0.93,0.75c-7.8,5.99-14.67,13.19-23.45,17.9
		c-1.79,0.96-2.54,2.76-2.37,4.79c0.06,0.84-0.09,1.33-0.85,1.78c-2.42,1.46-3.1,3.61-1.91,5.73c1.19,2.14,3.47,2.63,6.05,1.3
		c0.5-0.25,0.87-0.55,1.51-0.06c1.97,1.52,4.12,1.52,6.21,0.26c0.82-0.49,1.16-0.3,1.56,0.46c0.66,1.26,1.39,2.48,2.13,3.69
		c0.79,1.31,1.93,2.06,3.5,2.08c3.02,0.04,5.01-2.91,3.77-5.71c-0.52-1.19-1.18-2.34-1.9-3.42c-0.69-1.01-0.55-1.44,0.64-1.87
		c6.13-2.24,12.24-4.55,18.36-6.86C92.8,85.3,93.01,84.78,92.05,83.11z M52.61,95.47c-0.81,0.03-1.39-0.49-1.36-1.37
		c0.05-1.02,0.91-1.62,1.67-1.58c0.87,0.04,0.9,1.25,1.48,1.87C54,95.14,53.31,95.45,52.61,95.47z M70.75,101
		c-0.61,0.28-1.3,0.24-1.69-0.37c-0.9-1.44-1.75-2.92-2.57-4.4c-0.22-0.39,1.32-1.7,1.98-1.65c0.07,0.06,0.23,0.13,0.3,0.26
		c0.89,1.52,1.81,3.01,2.61,4.58C71.69,100.02,71.39,100.69,70.75,101z"/>
	
		<linearGradient id="SVGID_00000079473961517883320330000001659502994951919488_" gradientUnits="userSpaceOnUse" x1="96.3967" y1="47.7048" x2="121.0549" y2="47.7048">
		<stop  offset="0" style="stop-color:#980000"/>
		<stop  offset="1" style="stop-color:#000000"/>
	</linearGradient>
	<path style="fill:url(#SVGID_00000079473961517883320330000001659502994951919488_);" d="M108.75,35.39c2.62,0,5.24-0.02,7.86,0.01
		c2.72,0.03,4.4,1.66,4.41,4.35c0.04,5.3,0.03,10.6,0,15.89c-0.02,2.69-1.69,4.36-4.39,4.38c-5.3,0.03-10.6,0.03-15.89,0
		c-2.61-0.02-4.29-1.68-4.33-4.26c-0.05-2.51,0.01-5.01-0.02-7.52c-0.01-1.04,0.24-1.89,1.44-1.85c1.09,0.03,1.32,0.85,1.31,1.81
		c-0.03,2.39,0.02,4.79-0.02,7.18c-0.03,1.4,0.6,1.93,1.96,1.92c5.07-0.03,10.14-0.04,15.21,0c1.47,0.01,2.03-0.61,2.02-2.05
		c-0.04-5.01-0.05-10.03,0-15.04c0.02-1.56-0.61-2.12-2.14-2.1c-4.96,0.05-9.91,0.06-14.87,0c-1.64-0.02-2.31,0.63-2.18,2.23
		c0.05,0.68,0.05,1.37-0.02,2.05c-0.09,0.8-0.62,1.21-1.41,1.18c-0.7-0.03-1.24-0.44-1.26-1.15c-0.04-1.3-0.11-2.64,0.12-3.91
		c0.36-1.92,2.02-3.08,4.15-3.11C103.4,35.36,106.08,35.39,108.75,35.39z"/>
	
		<linearGradient id="SVGID_00000163791445977352064700000011479141118796886430_" gradientUnits="userSpaceOnUse" x1="96.3908" y1="90.1271" x2="121.0997" y2="90.1271">
		<stop  offset="0" style="stop-color:#980000"/>
		<stop  offset="1" style="stop-color:#000000"/>
	</linearGradient>
	<path style="fill:url(#SVGID_00000163791445977352064700000011479141118796886430_);" d="M108.68,102.45
		c-2.62,0-5.24,0.03-7.86-0.01c-2.7-0.03-4.39-1.68-4.41-4.36c-0.03-5.3-0.03-10.6,0-15.89c0.02-2.69,1.69-4.35,4.4-4.36
		c5.3-0.03,10.6-0.03,15.89,0c2.61,0.02,4.27,1.67,4.32,4.26c0.05,2.56,0,5.13,0.02,7.69c0.01,1.01-0.37,1.72-1.45,1.68
		c-0.97-0.04-1.31-0.73-1.3-1.66c0.02-2.34-0.05-4.67,0.03-7.01c0.05-1.57-0.48-2.29-2.16-2.26c-4.96,0.07-9.91,0.05-14.87,0.01
		c-1.5-0.01-2.19,0.48-2.18,2.07c0.05,5.01,0.05,10.03,0,15.04c-0.02,1.58,0.64,2.1,2.15,2.09c4.96-0.05,9.91-0.06,14.87,0
		c1.65,0.02,2.29-0.65,2.17-2.25c-0.05-0.68-0.04-1.37,0.02-2.05c0.07-0.72,0.55-1.11,1.25-1.17c0.64-0.06,1.28,0.28,1.33,0.83
		c0.16,1.96,0.58,4-0.77,5.76c-0.86,1.11-2.03,1.6-3.42,1.6C114.04,102.44,111.36,102.45,108.68,102.45z"/>
	
		<linearGradient id="SVGID_00000054984857070635947360000017146534065864448929_" gradientUnits="userSpaceOnUse" x1="47.2093" y1="54.5421" x2="52.5704" y2="54.5421">
		<stop  offset="0" style="stop-color:#980000"/>
		<stop  offset="1" style="stop-color:#000000"/>
	</linearGradient>
	<path style="fill:url(#SVGID_00000054984857070635947360000017146534065864448929_);" d="M52.57,54.55
		c-0.01,1.07-0.76,1.41-1.74,1.36c-0.28-0.01-0.56,0-0.98,0c-0.95-0.13-2.59,0.49-2.64-1.3c-0.05-1.94,1.66-1.33,2.8-1.44
		c0.28-0.02,0.56,0.01,0.84,0C51.84,53.12,52.57,53.49,52.57,54.55z"/>
	
		<linearGradient id="SVGID_00000054975510972669014210000001142467977287235774_" gradientUnits="userSpaceOnUse" x1="44.4302" y1="60.021" x2="52.5717" y2="60.021">
		<stop  offset="0" style="stop-color:#980000"/>
		<stop  offset="1" style="stop-color:#000000"/>
	</linearGradient>
	<path style="fill:url(#SVGID_00000054975510972669014210000001142467977287235774_);" d="M52.57,60.08
		c-0.03,0.77-0.5,1.27-1.3,1.29c-1.8,0.03-3.61,0.02-5.42,0.01c-0.88-0.01-1.41-0.49-1.42-1.35c-0.01-0.86,0.5-1.35,1.38-1.37
		c0.91-0.03,1.81-0.01,2.72-0.01c0.9,0,1.81-0.02,2.71,0.01C52.12,58.7,52.6,59.22,52.57,60.08z"/>
	
		<linearGradient id="SVGID_00000118366530409138431710000014288704454544341413_" gradientUnits="userSpaceOnUse" x1="44.4304" y1="65.49" x2="52.5727" y2="65.49">
		<stop  offset="0" style="stop-color:#980000"/>
		<stop  offset="1" style="stop-color:#000000"/>
	</linearGradient>
	<path style="fill:url(#SVGID_00000118366530409138431710000014288704454544341413_);" d="M52.57,65.57
		c-0.04,0.77-0.51,1.25-1.31,1.27c-0.96,0.03-1.92,0.01-2.88,0.01c0,0,0,0,0-0.01c-0.91,0-1.81,0.04-2.72-0.01
		c-0.79-0.04-1.23-0.57-1.23-1.34s0.43-1.32,1.23-1.34c1.86-0.05,3.73-0.04,5.59-0.01C52.13,64.16,52.61,64.72,52.57,65.57z"/>
	
		<linearGradient id="SVGID_00000027595815791918299560000006887853799458826166_" gradientUnits="userSpaceOnUse" x1="38.9003" y1="60.0193" x2="58.1024" y2="60.0193">
		<stop  offset="0" style="stop-color:#980000"/>
		<stop  offset="1" style="stop-color:#000000"/>
	</linearGradient>
	<path style="fill:url(#SVGID_00000027595815791918299560000006887853799458826166_);" d="M58.08,60.19c0-3.42-0.04-6.84,0.02-10.26
		c0.03-1.57-0.48-2.28-2.16-2.26c-4.95,0.07-9.91,0.06-14.87,0.01c-1.5-0.02-2.18,0.49-2.17,2.07c0.05,6.84,0.05,13.68,0,20.52
		c-0.01,1.57,0.65,2.1,2.16,2.08c4.96-0.05,9.91-0.06,14.87,0.01c1.66,0.02,2.21-0.67,2.17-2.26C58.03,66.8,58.08,63.49,58.08,60.19
		z M55.37,68.4c0.01,0.96-0.26,1.23-1.22,1.22c-3.77-0.06-7.53-0.06-11.29,0c-0.97,0.01-1.25-0.26-1.22-1.22
		c0.06-2.8,0.02-5.59,0.02-8.38c0-2.8,0.04-5.59-0.02-8.38c-0.03-0.97,0.25-1.24,1.22-1.23c3.76,0.06,7.52,0.06,11.29,0
		c0.96-0.01,1.23,0.26,1.22,1.22C55.32,57.22,55.32,62.81,55.37,68.4z"/>
	
		<linearGradient id="SVGID_00000003087863800021020590000011631036113425670591_" gradientUnits="userSpaceOnUse" x1="69.0196" y1="46.3324" x2="80.0142" y2="46.3324">
		<stop  offset="0" style="stop-color:#980000"/>
		<stop  offset="1" style="stop-color:#000000"/>
	</linearGradient>
	<path style="fill:url(#SVGID_00000003087863800021020590000011631036113425670591_);" d="M78.87,44.95
		c-2.51-1.31-5.05-2.57-7.61-3.79c-1.36-0.65-2.16-0.11-2.22,1.42c-0.04,1.19-0.01,2.39-0.01,3.58c0,1.31-0.03,2.62,0.01,3.92
		c0.05,1.53,0.86,2.07,2.23,1.41c2.55-1.22,5.09-2.47,7.6-3.79C80.4,46.9,80.39,45.75,78.87,44.95z M71.84,48.18v-3.7
		c1.21,0.6,2.29,1.14,3.7,1.85C74.14,47.03,73.06,47.57,71.84,48.18z"/>
	
		<linearGradient id="SVGID_00000152958228044758960320000015156876273100850612_" gradientUnits="userSpaceOnUse" x1="60.8204" y1="46.3293" x2="85.4504" y2="46.3293">
		<stop  offset="0" style="stop-color:#980000"/>
		<stop  offset="1" style="stop-color:#000000"/>
	</linearGradient>
	<path style="fill:url(#SVGID_00000152958228044758960320000015156876273100850612_);" d="M73.21,34.01
		c-6.79-0.02-12.36,5.47-12.39,12.2c-0.02,6.88,5.48,12.43,12.34,12.43c6.74,0.01,12.28-5.53,12.29-12.29
		C85.46,39.58,79.96,34.04,73.21,34.01z M73.03,55.91c-5.21-0.03-9.5-4.4-9.47-9.65c0.04-5.26,4.33-9.51,9.6-9.51
		c5.24,0,9.57,4.33,9.55,9.55C82.7,51.66,78.39,55.93,73.03,55.91z"/>
	
		<linearGradient id="SVGID_00000046317569403035631650000003557545940178876547_" gradientUnits="userSpaceOnUse" x1="103.2496" y1="90.1292" x2="114.1915" y2="90.1292">
		<stop  offset="0" style="stop-color:#980000"/>
		<stop  offset="1" style="stop-color:#000000"/>
	</linearGradient>
	<path style="fill:url(#SVGID_00000046317569403035631650000003557545940178876547_);" d="M108.75,84.66
		c-2.96-0.03-5.45,2.38-5.5,5.34c-0.05,3.05,2.4,5.57,5.43,5.59c2.97,0.02,5.45-2.38,5.51-5.34
		C114.25,87.21,111.8,84.69,108.75,84.66z M108.63,92.86c-1.47-0.05-2.67-1.31-2.64-2.78c0.03-1.48,1.25-2.69,2.73-2.68
		c1.48,0,2.71,1.2,2.73,2.69C111.48,91.63,110.17,92.91,108.63,92.86z"/>
	
		<linearGradient id="SVGID_00000015345954637184753770000015673343337377463221_" gradientUnits="userSpaceOnUse" x1="103.2748" y1="47.6812" x2="114.1199" y2="47.6812">
		<stop  offset="0" style="stop-color:#980000"/>
		<stop  offset="1" style="stop-color:#000000"/>
	</linearGradient>
	<path style="fill:url(#SVGID_00000015345954637184753770000015673343337377463221_);" d="M111.48,40.86
		c0.98,0.12,2.63-0.48,2.64,1.35c0.02,1.83-1.61,1.3-2.72,1.38c-0.51,0.04-1.04-0.05-1.53,0.05c-0.95,0.21-1.11,0.94-1.17,1.82
		c-0.07,1.05,0.58,0.88,1.19,0.87c0.95-0.01,1.56,0.45,1.53,1.42c-0.03,0.97-0.71,1.41-1.63,1.3c-0.97-0.12-1.13,0.33-1.08,1.15
		c0.06,0.96,0.02,1.93,0.01,2.9c-0.02,0.88-0.51,1.41-1.37,1.4c-0.86-0.01-1.34-0.54-1.35-1.43c-0.01-0.68-0.02-1.37,0-2.05
		c0.03-1.13,0.25-2.29-1.61-2.04c-0.74,0.1-1.17-0.66-1.09-1.44c0.08-0.77,0.59-1.3,1.38-1.2c1.21,0.15,1.32-0.42,1.35-1.43
		C106.12,42.17,107.91,40.86,111.48,40.86z"/>
	
		<linearGradient id="SVGID_00000121264136878947413120000004452358384324291970_" gradientUnits="userSpaceOnUse" x1="93.5831" y1="73.0095" x2="103.2527" y2="73.0095">
		<stop  offset="0" style="stop-color:#980000"/>
		<stop  offset="1" style="stop-color:#000000"/>
	</linearGradient>
	<path style="fill:url(#SVGID_00000121264136878947413120000004452358384324291970_);" d="M95.42,75.06
		c-1.09,0.04-1.66-0.26-1.8-1.07c-0.15-0.85,0.18-1.46,1.06-1.64c2.23-0.46,4.45-0.91,6.68-1.35c0.89-0.17,1.64,0.08,1.84,1.04
		c0.2,0.95-0.32,1.5-1.25,1.69C99.68,74.19,97.4,74.66,95.42,75.06z"/>
	
		<linearGradient id="SVGID_00000150810700838924604500000005360154293814252703_" gradientUnits="userSpaceOnUse" x1="85.421" y1="60.0313" x2="92.2901" y2="60.0313">
		<stop  offset="0" style="stop-color:#980000"/>
		<stop  offset="1" style="stop-color:#000000"/>
	</linearGradient>
	<path style="fill:url(#SVGID_00000150810700838924604500000005360154293814252703_);" d="M90.91,55.92c1.04,0,1.77,1.15,1.16,2.04
		c-1.35,1.95-2.8,3.84-4.26,5.7c-0.48,0.61-1.19,0.64-1.82,0.14c-0.55-0.44-0.76-1.08-0.35-1.66c1.42-1.97,2.9-3.9,4.37-5.83
		C90.22,56.03,90.54,55.89,90.91,55.92z"/>
	
		<linearGradient id="SVGID_00000051345570135037971090000010130247787179010983_" gradientUnits="userSpaceOnUse" x1="89.5444" y1="66.1484" x2="97.8153" y2="66.1484">
		<stop  offset="0" style="stop-color:#980000"/>
		<stop  offset="1" style="stop-color:#000000"/>
	</linearGradient>
	<path style="fill:url(#SVGID_00000051345570135037971090000010130247787179010983_);" d="M90.95,69.59c-0.57,0-0.97-0.29-1.23-0.76
		c-0.31-0.57-0.22-1.16,0.27-1.54c1.92-1.49,3.86-2.96,5.83-4.37c0.58-0.42,1.21-0.15,1.64,0.41c0.38,0.49,0.53,1.11,0.04,1.54
		c-1.94,1.73-4.05,3.25-6.22,4.67C91.2,69.59,91.07,69.57,90.95,69.59z"/>
	
		<linearGradient id="SVGID_00000068642649082126520730000001080355647988635059_" gradientUnits="userSpaceOnUse" x1="47.2093" y1="54.5421" x2="52.5704" y2="54.5421">
		<stop  offset="0" style="stop-color:#980000"/>
		<stop  offset="1" style="stop-color:#000000"/>
	</linearGradient>
	<path style="fill:url(#SVGID_00000068642649082126520730000001080355647988635059_);" d="M47.21,54.61
		c-0.05-1.94,1.66-1.33,2.8-1.44c0.28-0.02,0.56,0.01,0.84,0c0.99-0.05,1.72,0.32,1.72,1.38c-0.01,1.07-0.76,1.41-1.74,1.36
		c-0.28-0.01-0.56,0-0.98,0C48.9,55.78,47.26,56.4,47.21,54.61z"/>
	
		<linearGradient id="SVGID_00000060747104977203249710000005868966239752998331_" gradientUnits="userSpaceOnUse" x1="44.4302" y1="60.021" x2="52.5717" y2="60.021">
		<stop  offset="0" style="stop-color:#980000"/>
		<stop  offset="1" style="stop-color:#000000"/>
	</linearGradient>
	<path style="fill:url(#SVGID_00000060747104977203249710000005868966239752998331_);" d="M52.57,60.08
		c-0.03,0.77-0.5,1.27-1.3,1.29c-1.8,0.03-3.61,0.02-5.42,0.01c-0.88-0.01-1.41-0.49-1.42-1.35c-0.01-0.86,0.5-1.35,1.38-1.37
		c0.91-0.03,1.81-0.01,2.72-0.01c0.9,0,1.81-0.02,2.71,0.01C52.12,58.7,52.6,59.22,52.57,60.08z"/>
	
		<linearGradient id="SVGID_00000079452481296954893370000008708688714026014885_" gradientUnits="userSpaceOnUse" x1="44.4304" y1="65.49" x2="52.5727" y2="65.49">
		<stop  offset="0" style="stop-color:#980000"/>
		<stop  offset="1" style="stop-color:#000000"/>
	</linearGradient>
	<path style="fill:url(#SVGID_00000079452481296954893370000008708688714026014885_);" d="M52.57,65.57
		c-0.04,0.77-0.51,1.25-1.31,1.27c-0.96,0.03-1.92,0.01-2.88,0.01c0,0,0,0,0-0.01c-0.91,0-1.81,0.04-2.72-0.01
		c-0.79-0.04-1.23-0.57-1.23-1.34s0.43-1.32,1.23-1.34c1.86-0.05,3.73-0.04,5.59-0.01C52.13,64.16,52.61,64.72,52.57,65.57z"/>
	
		<linearGradient id="SVGID_00000077317972685154947330000011178613270747326140_" gradientUnits="userSpaceOnUse" x1="69.0196" y1="46.3324" x2="80.0142" y2="46.3324">
		<stop  offset="0" style="stop-color:#980000"/>
		<stop  offset="1" style="stop-color:#000000"/>
	</linearGradient>
	<path style="fill:url(#SVGID_00000077317972685154947330000011178613270747326140_);" d="M78.87,44.95
		c-2.51-1.31-5.05-2.57-7.61-3.79c-1.36-0.65-2.16-0.11-2.22,1.42c-0.04,1.19-0.01,2.39-0.01,3.58c0,1.31-0.03,2.62,0.01,3.92
		c0.05,1.53,0.86,2.07,2.23,1.41c2.55-1.22,5.09-2.47,7.6-3.79C80.4,46.9,80.39,45.75,78.87,44.95z M71.84,48.18v-3.7
		c1.21,0.6,2.29,1.14,3.7,1.85C74.14,47.03,73.06,47.57,71.84,48.18z"/>
	
		<linearGradient id="SVGID_00000004510548784538094800000004049513500176011195_" gradientUnits="userSpaceOnUse" x1="44.4302" y1="60.021" x2="52.5717" y2="60.021">
		<stop  offset="0" style="stop-color:#980000"/>
		<stop  offset="1" style="stop-color:#000000"/>
	</linearGradient>
	<path style="fill:url(#SVGID_00000004510548784538094800000004049513500176011195_);" d="M52.57,60.08
		c-0.03,0.77-0.5,1.27-1.3,1.29c-1.8,0.03-3.61,0.02-5.42,0.01c-0.88-0.01-1.41-0.49-1.42-1.35c-0.01-0.86,0.5-1.35,1.38-1.37
		c0.91-0.03,1.81-0.01,2.72-0.01c0.9,0,1.81-0.02,2.71,0.01C52.12,58.7,52.6,59.22,52.57,60.08z"/>
	
		<linearGradient id="SVGID_00000111174438919476705000000011297306597923601808_" gradientUnits="userSpaceOnUse" x1="44.4304" y1="65.49" x2="52.5727" y2="65.49">
		<stop  offset="0" style="stop-color:#980000"/>
		<stop  offset="1" style="stop-color:#000000"/>
	</linearGradient>
	<path style="fill:url(#SVGID_00000111174438919476705000000011297306597923601808_);" d="M52.57,65.57
		c-0.04,0.77-0.51,1.25-1.31,1.27c-0.96,0.03-1.92,0.01-2.88,0.01c0,0,0,0,0-0.01c-0.91,0-1.81,0.04-2.72-0.01
		c-0.79-0.04-1.23-0.57-1.23-1.34s0.43-1.32,1.23-1.34c1.86-0.05,3.73-0.04,5.59-0.01C52.13,64.16,52.61,64.72,52.57,65.57z"/>
	
		<linearGradient id="SVGID_00000113315506000610140620000016220245087402424751_" gradientUnits="userSpaceOnUse" x1="47.2093" y1="54.5421" x2="52.5704" y2="54.5421">
		<stop  offset="0" style="stop-color:#980000"/>
		<stop  offset="1" style="stop-color:#000000"/>
	</linearGradient>
	<path style="fill:url(#SVGID_00000113315506000610140620000016220245087402424751_);" d="M52.57,54.55
		c-0.01,1.07-0.76,1.41-1.74,1.36c-0.28-0.01-0.56,0-0.98,0c-0.95-0.13-2.59,0.49-2.64-1.3c-0.05-1.94,1.66-1.33,2.8-1.44
		c0.28-0.02,0.56,0.01,0.84,0C51.84,53.12,52.57,53.49,52.57,54.55z"/>
	
		<linearGradient id="SVGID_00000160190411996568335770000014860574183586575753_" gradientUnits="userSpaceOnUse" x1="69.0196" y1="46.3324" x2="80.0142" y2="46.3324">
		<stop  offset="0" style="stop-color:#980000"/>
		<stop  offset="1" style="stop-color:#000000"/>
	</linearGradient>
	<path style="fill:url(#SVGID_00000160190411996568335770000014860574183586575753_);" d="M78.87,44.95
		c-2.51-1.31-5.05-2.57-7.61-3.79c-1.36-0.65-2.16-0.11-2.22,1.42c-0.04,1.19-0.01,2.39-0.01,3.58c0,1.31-0.03,2.62,0.01,3.92
		c0.05,1.53,0.86,2.07,2.23,1.41c2.55-1.22,5.09-2.47,7.6-3.79C80.4,46.9,80.39,45.75,78.87,44.95z M71.84,48.18v-3.7
		c1.21,0.6,2.29,1.14,3.7,1.85C74.14,47.03,73.06,47.57,71.84,48.18z"/>
</g>
<linearGradient id="SVGID_00000064321695286901998090000000474377851896164522_" gradientUnits="userSpaceOnUse" x1="-53.9007" y1="80" x2="-29.0084" y2="80">
	<stop  offset="0" style="stop-color:#980000"/>
	<stop  offset="1" style="stop-color:#000000"/>
</linearGradient>
<rect x="-53.9" y="67.55" style="fill:url(#SVGID_00000064321695286901998090000000474377851896164522_);" width="24.89" height="24.89"/>
</svg>
