<?xml version="1.0" encoding="utf-8"?>
<!-- Generator: Adobe Illustrator 25.4.1, SVG Export Plug-In . SVG Version: 6.00 Build 0)  -->
<svg version="1.1" id="Layer_1" xmlns="http://www.w3.org/2000/svg" xmlns:xlink="http://www.w3.org/1999/xlink" x="0px" y="0px"
	 viewBox="0 0 160 160" style="enable-background:new 0 0 160 160;" xml:space="preserve">
<style type="text/css">
	.st0{fill:url(#SVGID_1_);}
	.st1{fill:#FFFFFF;}
</style>
<linearGradient id="SVGID_1_" gradientUnits="userSpaceOnUse" x1="-53.9007" y1="80" x2="-29.0084" y2="80">
	<stop  offset="0" style="stop-color:#980000"/>
	<stop  offset="1" style="stop-color:#000000"/>
</linearGradient>
<rect x="-53.9" y="67.55" class="st0" width="24.89" height="24.89"/>
<g>
	<path class="st1" d="M130.07,22.79H29.95c-0.39,0.31-0.5,0.71-0.46,1.19c0.24,2.56,0.45,5.11,0.68,7.67
		c0.35,3.81,0.69,7.62,1.03,11.44c0.33,3.7,0.63,7.41,0.97,11.11c0.44,4.77,0.84,9.55,1.27,14.33c0.33,3.66,0.63,7.33,0.98,10.99
		c0.35,3.78,0.69,7.56,1.01,11.33c0.32,3.82,0.69,7.63,1,11.45c0.32,3.85,0.69,7.7,1.03,11.55c0.32,3.59,0.64,7.18,0.95,10.77
		c0.09,1.06,0.59,1.74,1.72,2.03c2.88,0.75,5.72,1.64,8.61,2.39c10.29,2.65,20.34,6.22,30.82,8.17h0.89
		c2.59-0.34,5.11-0.92,7.61-1.66c1.82-0.54,3.65-1.04,5.48-1.55c8.74-2.43,17.5-4.86,26.23-7.34c1.47-0.42,1.76-0.8,1.87-2.37
		c0.32-4.63,0.78-9.26,1.19-13.89c0.57-6.29,1.14-12.59,1.7-18.88c0.48-5.48,0.94-10.96,1.44-16.44c0.56-6.3,1.12-12.59,1.69-18.88
		c0.49-5.48,0.96-10.97,1.44-16.45c0.45-5.22,0.9-10.44,1.41-15.66C130.56,23.58,130.5,23.13,130.07,22.79z M111.61,45.02
		c-0.83,8.78-1.56,17.56-2.35,26.35c-0.7,7.89-1.44,15.78-2.15,23.68c-0.37,4.07-0.74,8.15-1.08,12.23
		c-0.06,0.7-0.32,0.98-1.02,1.17c-8.1,2.21-16.18,4.46-24.27,6.7c-0.48,0.14-0.92,0.18-1.41,0.04c-8.05-2.24-16.1-4.48-24.16-6.68
		c-0.8-0.21-1.15-0.54-1.22-1.39C53.5,101.71,53,96.3,52.52,90.89c-0.07-0.78-0.14-1.56-0.22-2.33c-0.05-0.47,0.13-0.68,0.62-0.67
		c3.8,0,7.6,0.01,11.4-0.01c0.75,0,0.68,0.5,0.72,0.99c0.25,2.85,0.53,5.7,0.75,8.56c0.06,0.73,0.31,1.08,1.06,1.27
		c4.13,1.08,8.25,2.21,12.37,3.33c0.52,0.14,1.01,0.14,1.53,0c4.13-1.12,8.25-2.24,12.38-3.33c0.7-0.18,1.04-0.47,1.12-1.23
		c0.54-5.3,1.12-10.58,1.71-15.87c0.07-0.56-0.08-0.76-0.63-0.71c-0.25,0.02-0.52,0-0.78,0c-13.85,0.04-27.7,0.06-41.56,0.13
		c-1.02,0.01-1.41-0.23-1.5-1.28c-0.27-3.19-0.63-6.37-1-9.54c-0.1-0.92,0.13-1.19,1.1-1.2c13.59-0.12,27.18-0.29,40.77-0.46
		c1.3-0.01,2.61-0.06,3.91-0.06c0.58,0,0.88-0.14,0.92-0.8c0.25-3.78,0.53-7.57,0.82-11.36c0.04-0.46-0.05-0.71-0.57-0.68
		c-0.3,0.02-0.59,0-0.89,0c-15.34,0.05-30.69,0.09-46.03,0.18c-1.11,0.01-1.46-0.29-1.51-1.38c-0.16-3.27-0.4-6.54-0.67-9.81
		c-0.09-1.08,0.61-0.79,1.14-0.79c10.16-0.01,20.33-0.01,30.49-0.01c10.17,0,20.34,0.01,30.5-0.02
		C111.42,43.81,111.71,43.94,111.61,45.02z"/>
</g>
</svg>
