<?xml version="1.0" encoding="utf-8"?>
<!-- Generator: Adobe Illustrator 25.4.1, SVG Export Plug-In . SVG Version: 6.00 Build 0)  -->
<svg version="1.1" id="Layer_1" xmlns="http://www.w3.org/2000/svg" xmlns:xlink="http://www.w3.org/1999/xlink" x="0px" y="0px"
	 viewBox="0 0 160 160" style="enable-background:new 0 0 160 160;" xml:space="preserve">
<style type="text/css">
	.st0{fill:url(#SVGID_1_);}
	.st1{fill:#FFFFFF;}
</style>
<linearGradient id="SVGID_1_" gradientUnits="userSpaceOnUse" x1="-53.9007" y1="80" x2="-29.0084" y2="80">
	<stop  offset="0" style="stop-color:#980000"/>
	<stop  offset="1" style="stop-color:#000000"/>
</linearGradient>
<rect x="-53.9" y="67.55" class="st0" width="24.89" height="24.89"/>
<g>
	<path class="st1" d="M122.82,31.05H37.17c-0.33,0.27-0.43,0.61-0.39,1.02c0.19,2.17,0.38,4.36,0.57,6.55
		c0.29,3.33,0.59,6.65,0.9,9.98c0.27,3.11,0.53,6.22,0.81,9.32c0.38,4.08,0.73,8.17,1.1,12.26c0.28,3.14,0.53,6.27,0.82,9.41
		c0.3,3.22,0.59,6.46,0.87,9.69c0.28,3.26,0.58,6.52,0.86,9.8c0.35,4.02,0.71,8.04,1.07,12.06c0.2,2.31,0.42,4.63,0.61,6.94
		c0.08,0.99,0.51,1.59,1.56,1.86c2.48,0.63,4.91,1.4,7.37,2.04c8.78,2.26,17.35,5.31,26.3,6.97h0.76c3.19-0.37,6.22-1.35,9.28-2.21
		c8-2.21,16.01-4.45,24.01-6.7c1.76-0.49,1.86-0.71,1.97-2.52c0.23-3.24,0.57-6.46,0.85-9.7c0.28-3.3,0.57-6.59,0.87-9.89
		c0.3-3.16,0.57-6.33,0.85-9.5c0.29-3.2,0.59-6.4,0.86-9.61c0.27-3.26,0.57-6.52,0.86-9.79c0.34-3.89,0.7-7.79,1.05-11.68
		c0.34-3.96,0.7-7.93,1.04-11.89c0.39-4.44,0.77-8.86,1.2-13.3C123.25,31.72,123.19,31.35,122.82,31.05z M106,59.21
		c-0.05,0.75-0.49,0.67-0.97,0.67H86.57c-6.89,0-13.77,0.01-20.65-0.03c-0.82,0-1.11,0.15-1.01,1.04c0.32,3.01,0.58,6.03,0.81,9.04
		c0.05,0.83,0.35,1.02,1.15,1.02c12.28-0.03,24.54-0.03,36.81-0.03c1.25,0,1.26,0.01,1.15,1.24c-0.67,7.55-1.35,15.1-2.04,22.65
		c-0.25,2.86-0.52,5.72-0.75,8.56c-0.05,0.58-0.25,0.8-0.81,0.95c-6.89,1.9-13.77,3.83-20.66,5.77c-0.4,0.11-0.78,0.13-1.2,0
		c-6.85-1.92-13.71-3.86-20.56-5.74c-0.59-0.16-0.83-0.38-0.89-1c-0.4-4.75-0.83-9.51-1.26-14.26c-0.01-0.23-0.01-0.46-0.04-0.67
		c-0.16-1.67-0.16-1.67,1.57-1.67c2.67,0,5.35,0.03,8.03-0.03c0.75-0.01,1.06,0.16,1.13,0.96c0.15,2.41,0.43,4.83,0.58,7.23
		c0.04,0.7,0.32,0.92,0.91,1.09c3.5,0.94,6.99,1.88,10.49,2.84c0.44,0.11,0.86,0.11,1.3-0.01c3.53-0.97,7.04-1.93,10.58-2.87
		c0.61-0.15,0.78-0.44,0.83-1.04c0.33-4.03,0.66-8.05,1.09-12.08c0.1-0.97-0.14-1.15-1.06-1.15c-11.67,0.04-23.33,0.01-34.99,0.05
		c-0.95,0-1.14-0.32-1.21-1.18c-0.44-5.49-0.95-10.98-1.43-16.46c-0.42-4.69-0.81-9.39-1.25-14.09c-0.08-0.81,0.15-1,0.95-1
		c8.61,0.03,17.21,0.01,25.82,0.01c8.6,0,17.2,0.01,25.81-0.01c0.83,0,1.1,0.16,1.01,1.05C106.48,53.12,106.22,56.17,106,59.21z"/>
</g>
</svg>
