<?xml version="1.0" encoding="utf-8"?>
<!-- Generator: Adobe Illustrator 25.4.1, SVG Export Plug-In . SVG Version: 6.00 Build 0)  -->
<svg version="1.1" id="Layer_1" xmlns="http://www.w3.org/2000/svg" xmlns:xlink="http://www.w3.org/1999/xlink" x="0px" y="0px"
	 viewBox="0 0 160 160" style="enable-background:new 0 0 160 160;" xml:space="preserve">
<style type="text/css">
	.st0{fill:url(#SVGID_1_);}
	.st1{fill:url(#SVGID_00000085972964807346516060000006168385638807766676_);}
</style>
<g>
	<g>
		<g>
			<g>
				<linearGradient id="SVGID_1_" gradientUnits="userSpaceOnUse" x1="83.2612" y1="76.4802" x2="130.2832" y2="76.4802">
					<stop  offset="0" style="stop-color:#A20000"/>
					<stop  offset="0.132" style="stop-color:#9D0000"/>
					<stop  offset="0.2934" style="stop-color:#8E0000"/>
					<stop  offset="0.4703" style="stop-color:#750000"/>
					<stop  offset="0.6582" style="stop-color:#520000"/>
					<stop  offset="0.8527" style="stop-color:#260000"/>
					<stop  offset="1" style="stop-color:#000000"/>
				</linearGradient>
				<path class="st0" d="M84.23,103.76V89.6l32.32-12.33c0.05-0.09,0.05-0.57-0.07-0.71L84.23,64.63V49.2l40.53,15.99
					c3.88,1.53,6.49,6.07,6.49,11.29s-2.61,9.76-6.49,11.29L84.23,103.76z M87.2,91.65v7.75l36.47-14.39
					c2.72-1.07,4.62-4.58,4.62-8.53s-1.9-7.46-4.62-8.53L87.2,53.56v9l30.4,11.26c1.18,0.44,1.94,1.66,1.95,3.11
					c0,1.45-0.76,2.68-1.94,3.12L87.2,91.65z"/>
			</g>
		</g>
	</g>
</g>
<g>
	<g>
		<g>
			<g>
				
					<linearGradient id="SVGID_00000121242480375315192030000004218272956013282967_" gradientUnits="userSpaceOnUse" x1="-107.7999" y1="76.4802" x2="-60.7778" y2="76.4802" gradientTransform="matrix(-1 0 0 1 -31.061 0)">
					<stop  offset="0" style="stop-color:#A20000"/>
					<stop  offset="0.132" style="stop-color:#9D0000"/>
					<stop  offset="0.2934" style="stop-color:#8E0000"/>
					<stop  offset="0.4703" style="stop-color:#750000"/>
					<stop  offset="0.6582" style="stop-color:#520000"/>
					<stop  offset="0.8527" style="stop-color:#260000"/>
					<stop  offset="1" style="stop-color:#000000"/>
				</linearGradient>
				<path style="fill:url(#SVGID_00000121242480375315192030000004218272956013282967_);" d="M35.24,87.77
					c-3.88-1.53-6.49-6.07-6.49-11.29s2.61-9.76,6.49-11.29L75.77,49.2v15.43L43.51,76.56c-0.12,0.14-0.12,0.62-0.07,0.71
					L75.77,89.6v14.16L35.24,87.77z M42.4,80.05c-1.18-0.44-1.94-1.67-1.94-3.12c0-1.45,0.77-2.67,1.95-3.11l30.4-11.26v-9
					L36.33,67.95c-2.72,1.07-4.62,4.58-4.62,8.53s1.9,7.46,4.62,8.53L72.8,99.4v-7.75L42.4,80.05z"/>
			</g>
		</g>
	</g>
</g>
</svg>
