<?xml version="1.0" encoding="utf-8"?>
<!-- Generator: Adobe Illustrator 25.4.1, SVG Export Plug-In . SVG Version: 6.00 Build 0)  -->
<svg version="1.1" id="Layer_1" xmlns="http://www.w3.org/2000/svg" xmlns:xlink="http://www.w3.org/1999/xlink" x="0px" y="0px"
	 viewBox="0 0 160 160" style="enable-background:new 0 0 160 160;" xml:space="preserve">
<style type="text/css">
	.st0{fill:url(#SVGID_1_);}
	.st1{fill:#FFFFFF;}
</style>
<linearGradient id="SVGID_1_" gradientUnits="userSpaceOnUse" x1="-53.9007" y1="80" x2="-29.0084" y2="80">
	<stop  offset="0" style="stop-color:#980000"/>
	<stop  offset="1" style="stop-color:#000000"/>
</linearGradient>
<rect x="-53.9" y="67.55" class="st0" width="24.89" height="24.89"/>
<g>
	<path class="st1" d="M85.55,86.6c0.3,0.42,0.58,0.84,0.88,1.23c0.75,0.96,1.64,1.74,2.77,2.22c0.68,0.29,1.39,0.46,2.13,0.52
		c0.91,0.08,1.81,0.03,2.69-0.24c0.77-0.23,1.46-0.61,1.96-1.26c0.91-1.17,0.75-2.92-0.35-3.96c-0.55-0.52-1.19-0.9-1.87-1.21
		c-1.3-0.6-2.62-1.17-3.93-1.74c-1.58-0.69-3.1-1.48-4.44-2.59c-1.56-1.29-2.61-2.9-3.02-4.89c-0.35-1.68-0.37-3.37,0.14-5.03
		c0.57-1.88,1.69-3.37,3.32-4.46c1.35-0.91,2.85-1.39,4.46-1.58c1.57-0.19,3.14-0.12,4.68,0.24c2.5,0.57,4.38,2.02,5.78,4.14
		c0.18,0.27,0.35,0.55,0.53,0.84c-1.74,1.11-3.45,2.22-5.18,3.32c-0.16-0.25-0.31-0.5-0.47-0.73c-0.4-0.6-0.88-1.13-1.5-1.52
		c-0.8-0.49-1.67-0.63-2.59-0.57c-0.65,0.04-1.26,0.22-1.79,0.62c-0.67,0.51-1.02,1.2-1.06,2.03c-0.04,0.8,0.14,1.54,0.68,2.16
		c0.38,0.43,0.84,0.77,1.35,1.03c0.97,0.47,1.94,0.93,2.93,1.36c1.45,0.63,2.9,1.26,4.27,2.06c1.19,0.7,2.3,1.5,3.22,2.56
		c0.98,1.13,1.59,2.43,1.87,3.89c0.24,1.29,0.28,2.6,0.07,3.9c-0.42,2.53-1.73,4.48-3.91,5.83c-1.37,0.85-2.87,1.31-4.45,1.56
		c-0.91,0.14-1.82,0.19-2.74,0.18c-2.06-0.02-4.06-0.37-5.96-1.21c-2.51-1.11-4.43-2.88-5.74-5.3c-0.15-0.27-0.14-0.27,0.12-0.42
		c1.68-0.97,3.35-1.94,5.03-2.91C85.48,86.63,85.52,86.62,85.55,86.6z"/>
	<path class="st1" d="M62.15,87.16c0.12,0.21,0.24,0.42,0.36,0.62c0.37,0.63,0.76,1.24,1.29,1.75c0.74,0.72,1.63,1.04,2.65,1.03
		c0.48-0.01,0.96-0.04,1.43-0.18c0.86-0.26,1.42-0.83,1.73-1.66c0.28-0.77,0.34-1.56,0.34-2.37c0-7.38,0-14.76,0-22.14
		c0-0.32,0-0.32,0.32-0.32c2.04,0,4.07,0,6.11,0c0.17,0,0.22,0.04,0.22,0.22c0,7.57,0,15.14-0.01,22.71c0,1.64-0.28,3.24-0.96,4.75
		c-0.8,1.75-2.06,3.06-3.79,3.9c-1.2,0.58-2.47,0.88-3.79,0.99c-1.08,0.09-2.15,0.09-3.23-0.07c-3.24-0.45-5.75-2.02-7.47-4.83
		c-0.2-0.32-0.36-0.66-0.55-0.99c-0.05-0.1-0.04-0.15,0.06-0.21c1.35-0.81,2.69-1.62,4.03-2.44c0.36-0.22,0.73-0.44,1.09-0.66
		C62.03,87.22,62.08,87.2,62.15,87.16z"/>
</g>
</svg>
