<?xml version="1.0" encoding="utf-8"?>
<!-- Generator: Adobe Illustrator 25.4.1, SVG Export Plug-In . SVG Version: 6.00 Build 0)  -->
<svg version="1.1" id="Layer_1" xmlns="http://www.w3.org/2000/svg" xmlns:xlink="http://www.w3.org/1999/xlink" x="0px" y="0px"
	 viewBox="0 0 160 160" style="enable-background:new 0 0 160 160;" xml:space="preserve">
<style type="text/css">
	.st0{fill:url(#SVGID_1_);}
	.st1{fill:url(#SVGID_00000032639827091120657320000004959486392314053278_);}
	.st2{fill:url(#SVGID_00000077323863936776519070000013512887138680841150_);}
	.st3{fill:url(#SVGID_00000157989078021801912270000000618132149183586747_);}
	.st4{fill:url(#SVGID_00000021117472794796507040000011614499900104313747_);}
</style>
<g>
	<linearGradient id="SVGID_1_" gradientUnits="userSpaceOnUse" x1="59.3986" y1="87.0545" x2="62.0356" y2="87.0545">
		<stop  offset="0" style="stop-color:#980000"/>
		<stop  offset="1" style="stop-color:#000000"/>
	</linearGradient>
	<path class="st0" d="M62.04,87.1c-0.1,0.8-0.51,1.3-1.37,1.28c-0.79-0.01-1.24-0.5-1.26-1.26c-0.01-0.85,0.49-1.37,1.3-1.39
		C61.52,85.73,61.98,86.26,62.04,87.1z"/>
	
		<linearGradient id="SVGID_00000138531537366529290060000009077342456544733625_" gradientUnits="userSpaceOnUse" x1="48.7301" y1="80" x2="111.2699" y2="80">
		<stop  offset="0" style="stop-color:#980000"/>
		<stop  offset="1" style="stop-color:#000000"/>
	</linearGradient>
	<path style="fill:url(#SVGID_00000138531537366529290060000009077342456544733625_);" d="M111.23,59.92c0-2.9-1.97-5-4.83-5.45
		c-0.42-0.06-0.89,0.11-1.28-0.22c0.51-1.22,0.87-2.44,0.62-3.79c-0.49-2.71-2.25-4.16-4.7-5h-2.43c-2.14,0.76-3.54,2.29-4.66,4.19
		c-0.75,1.28-1.68,2.44-2.43,3.72c-0.5,0.85-1.11,1.07-2.07,1.07c-11.56-0.03-23.11-0.03-34.67-0.01c-3.8,0-6.05,2.26-6.05,6.04
		c-0.01,11.28-0.01,22.57,0,33.86c0,3.61,2.3,5.88,5.91,5.88c6.38,0.01,12.77,0,19.15,0h1.54c-0.29,1.29-0.54,2.47-0.83,3.65
		c-0.74,3.05-0.74,3.05-3.87,3.08c-2.62,0.03-4.25,1.5-4.37,4.08c-0.03,0.78-0.32,0.86-0.94,0.85c-1.03-0.04-2.07,0-3.11-0.01
		c-0.9-0.01-1.53,0.42-1.55,1.3c-0.01,0.96,0.64,1.42,1.6,1.39h31.16c1.48,0,2.97,0.01,4.45,0c0.92,0,1.48-0.51,1.46-1.4
		c-0.01-0.8-0.57-1.28-1.43-1.29c-1.03,0-2.07-0.04-3.09,0.01c-0.76,0.04-1.05-0.1-1.08-0.99c-0.08-2.33-1.76-3.87-4.11-3.93
		c-0.85-0.03-1.71-0.06-2.55,0c-0.61,0.04-0.9-0.15-1.03-0.75c-0.44-1.96-0.9-3.91-1.39-6h1.55c6.43,0,12.85,0.01,19.28,0
		c3.33-0.01,5.75-2.25,5.76-5.5C111.29,83.12,111.27,71.52,111.23,59.92z M90.54,59.62c2.16-3.23,4.33-6.47,6.49-9.71
		c0.68-1.03,1.57-1.71,2.96-1.75c1.15,0.06,2.14,0.58,2.75,1.71c0.69,1.3,0.47,2.53-0.43,3.64c-2.36,2.93-4.76,5.83-7.15,8.74
		c-1.8,2.18-1.8,2.18-4.04,0.53C89.32,61.44,89.32,61.44,90.54,59.62z M91.43,66.44c0.19,0.14,0.04,0.31-0.07,0.44
		c-0.21,0.24-0.4,0.49-0.61,0.72c-2.05,2.55-2.03,2.53-4.65,0.61c-0.69-0.51-0.85-0.86-0.28-1.57c0.6-0.72,1.05-1.55,1.6-2.33
		c0.14-0.21,0.21-0.53,0.65-0.46C89.15,64.69,90.31,65.55,91.43,66.44z M88.03,75.86c-0.21,1.43-1.53,2.64-2.91,2.78
		c-0.89,0.1-1.8,0.03-2.69,0.03c-1.76-0.06-3.51-0.01-5.16,0.69c-0.37,0.17-0.67,0.22-0.75-0.33c-0.32-2.07-0.47-4.12,0.26-6.12
		c0.85-2.29,3.29-3.84,5.73-3.71c0.44,0.01,0.75,0.24,1.07,0.47c1.08,0.8,2.11,1.69,3.26,2.39C88.39,73,88.25,74.45,88.03,75.86z
		 M89.01,109.64c0.35,0,0.74-0.03,1.07,0.07c0.82,0.25,1.05,0.93,0.96,1.71c-0.1,0.8-0.76,0.4-1.15,0.4
		c-3.32,0.04-6.63,0.03-9.95,0.03c-3.28,0-6.55,0.01-9.83-0.03c-0.39,0-1.07,0.4-1.17-0.4c-0.08-0.78,0.14-1.46,0.97-1.71
		c0.32-0.1,0.71-0.07,1.07-0.07H89.01z M76.55,106.93c0.5-2.12,1-4.11,1.44-6.12c0.11-0.49,0.36-0.58,0.83-0.62
		c2.96-0.19,2.96-0.21,3.64,2.66c0.26,1.14,0.51,2.28,0.82,3.4c0.14,0.56-0.01,0.69-0.57,0.69
		C80.7,106.92,78.69,106.93,76.55,106.93z M108.58,89.75c-0.11,1.43-0.01,2.87-0.03,4.3c-0.01,2.41-1.03,3.46-3.44,3.46H55.62
		c-0.46,0-0.9,0.01-1.35-0.01c-1.62-0.08-2.75-1.1-2.82-2.69c-0.08-1.89,0-3.77-0.04-5.66c0-0.62,0.25-0.76,0.8-0.75
		c0.94,0.03,1.89,0,2.83,0.01c0.9,0.01,1.53-0.35,1.55-1.29c0.03-1.01-0.64-1.4-1.58-1.42c-0.8,0-1.62-0.06-2.43,0.01
		c-0.94,0.1-1.19-0.22-1.19-1.18c0.06-6.56,0.03-13.13,0.03-19.69c0-1.57-0.03-3.14,0.01-4.72c0.04-1.85,1.08-2.98,2.93-3
		c11.42-0.03,22.84,0,34.25,0.01c0.03,0,0.06,0.06,0.19,0.21c-1.93,2.89-3.86,5.76-5.77,8.63c-0.21,0.32-0.42,0.51-0.85,0.54
		c-6.02,0.32-9.1,4.68-8.6,10.87c0.12,1.51,0.46,3.01,0.78,4.51c0.32,1.43,1.33,1.78,2.47,0.86c1.26-1.03,2.68-1.43,4.26-1.39
		c0.9,0.01,1.79,0.06,2.69,0.07c4.84,0.04,7.87-3.61,6.87-8.37c-0.14-0.65-0.04-1.07,0.37-1.57c3.69-4.47,7.38-8.94,11.02-13.45
		c1.35-1.67,3.03-0.97,4.57-0.71c1.42,0.25,1.93,1.48,1.93,2.87c0.01,8.19-0.01,16.36,0.03,24.55c0.01,0.99-0.47,0.94-1.15,0.94
		c-7.87-0.01-15.72-0.01-23.59-0.01H66.98c-0.44,0.01-0.9,0.01-1.32,0.14c-0.65,0.19-0.92,0.71-0.86,1.36
		c0.06,0.65,0.43,1.08,1.1,1.17c0.4,0.06,0.8,0.03,1.22,0.03c13.35,0.01,26.7,0.03,40.05-0.01
		C108.25,88.38,108.68,88.59,108.58,89.75z"/>
	
		<linearGradient id="SVGID_00000044171164898787118480000009226554229138227631_" gradientUnits="userSpaceOnUse" x1="59.3986" y1="87.0545" x2="62.0356" y2="87.0545">
		<stop  offset="0" style="stop-color:#980000"/>
		<stop  offset="1" style="stop-color:#000000"/>
	</linearGradient>
	<path style="fill:url(#SVGID_00000044171164898787118480000009226554229138227631_);" d="M62.04,87.1c-0.1,0.8-0.51,1.3-1.37,1.28
		c-0.79-0.01-1.24-0.5-1.26-1.26c-0.01-0.85,0.49-1.37,1.3-1.39C61.52,85.73,61.98,86.26,62.04,87.1z"/>
	
		<linearGradient id="SVGID_00000152978001580055641440000001979872783395637934_" gradientUnits="userSpaceOnUse" x1="59.3986" y1="87.0545" x2="62.0356" y2="87.0545">
		<stop  offset="0" style="stop-color:#980000"/>
		<stop  offset="1" style="stop-color:#000000"/>
	</linearGradient>
	<path style="fill:url(#SVGID_00000152978001580055641440000001979872783395637934_);" d="M62.04,87.1c-0.1,0.8-0.51,1.3-1.37,1.28
		c-0.79-0.01-1.24-0.5-1.26-1.26c-0.01-0.85,0.49-1.37,1.3-1.39C61.52,85.73,61.98,86.26,62.04,87.1z"/>
</g>
<linearGradient id="SVGID_00000150819998228287069650000012293459011929205143_" gradientUnits="userSpaceOnUse" x1="-27.4909" y1="81.591" x2="-2.5987" y2="81.591">
	<stop  offset="0" style="stop-color:#980000"/>
	<stop  offset="1" style="stop-color:#000000"/>
</linearGradient>
<rect x="-27.49" y="69.14" style="fill:url(#SVGID_00000150819998228287069650000012293459011929205143_);" width="24.89" height="24.89"/>
</svg>
